<svg xmlns="http://www.w3.org/2000/svg" fill-rule="evenodd" stroke-linejoin="round" stroke-miterlimit="2" clip-rule="evenodd" viewBox="0 0 64 64" id="github"><path fill="none" d="M0 0h64v64H0z"></path><path fill="#738b95" d="M26.968 42.73A5.978 5.978 0 0 0 26 46c-2 1-5 1-6 0-1.269-1.269-1-2-4-4a3.813 3.813 0 0 0-1.721-.633.737.737 0 0 0-.374 1.286c.781.606 1.824 1.534 2.095 2.347 1 3 3 5 6 5 1.81 0 3.096-.262 4-.597v4.467a4.002 4.002 0 0 1-5.663 3.639C10.708 53.044 4 43.299 4 32 4 16.546 16.546 4 32 4s28 12.546 28 28c0 11.299-6.708 21.044-16.356 25.468a3.958 3.958 0 0 1-5.6-3.598C38 50.185 38 46 38 46a6 6 0 0 0-.969-3.27C44.536 41.812 48 38.408 48 30.5c0-2.723-.924-4.985-2.411-6.802.772-2.083.966-4.568.626-6.692a1 1 0 0 0-1.219-.781c-2.608.645-4.658 1.638-6.174 2.965A20.723 20.723 0 0 0 32 18c-2.19 0-4.576.392-6.822 1.19-1.516-1.327-3.566-2.32-6.174-2.965a1 1 0 0 0-1.219.781c-.34 2.124-.146 4.609.626 6.692C16.924 25.515 16 27.777 16 30.5c0 7.907 3.464 11.311 10.968 12.23Z"></path><path fill="#617881" d="M22.935 57.76a4.001 4.001 0 0 1-2.598-.251C10.708 53.044 4 43.299 4 32 4 16.546 16.546 4 32 4c.314 0 .626.005.935.015C17.913 4.511 5.871 16.86 5.871 32c0 11.299 6.707 21.044 16.337 25.509.236.108.48.191.727.251Zm22.996-41.281c.304-.09.616-.174.936-.254a.995.995 0 0 1 1.218.781c.34 2.124.147 4.609-.625 6.692 1.487 1.817 2.411 4.079 2.411 6.802 0 7.908-3.465 11.312-10.969 12.23.627.966.969 2.101.969 3.27 0 0 0 4.185.044 7.87a3.958 3.958 0 0 0 3.021 3.843 3.954 3.954 0 0 1-4.892-3.843C38 50.185 38 46 38 46a6 6 0 0 0-.969-3.27C44.536 41.812 48 38.408 48 30.5c0-2.723-.924-4.985-2.411-6.802.772-2.083.966-4.568.626-6.692a1 1 0 0 0-.284-.527ZM26 49.859c-.613.088-1.319.141-2.129.141-.243 0-.48-.013-.709-.039 1.216-.085 2.141-.3 2.838-.558v.456Zm-10.401-8.096a.737.737 0 0 1 .551-.396 3.817 3.817 0 0 1 1.721.633c3 2 2.73 2.731 4 4 .36.36.98.591 1.719.691-1.492.179-2.95-.051-3.59-.691-1.269-1.269-1-2-4-4a4.143 4.143 0 0 0-.401-.237Zm17.336-23.739c.315-.016.628-.024.936-.024 1.756 0 3.638.252 5.472.764-.18.138-.354.28-.521.426a20.819 20.819 0 0 0-5.887-1.166Zm-12.996-1.545a1.005 1.005 0 0 1 .936-.254c2.32.574 4.199 1.424 5.652 2.539-.453.126-.904.268-1.349.426-1.33-1.164-3.071-2.071-5.239-2.711Z"></path></svg>